<svg xmlns="http://www.w3.org/2000/svg" viewBox="0 0 120 120" role="img" aria-label="Topaz">
  <title>Topaz</title>
  <defs>
    <linearGradient id="topaz-g" x1="0" y1="0" x2="0" y2="1">
      <stop offset="0" stop-color="#fbe6b0"/>
      <stop offset="0.45" stop-color="#e6b85e"/>
      <stop offset="1" stop-color="#a9742c"/>
    </linearGradient>
  </defs>
  <path d="M42 26 L78 26 L94 46 L60 102 L26 46 Z" fill="url(#topaz-g)" stroke="#7a5210" stroke-width="2.2" stroke-linejoin="round"/>
  <path d="M42 26 L60 26 L60 46 Z" fill="#fdeecb" fill-opacity="0.55"/>
  <path d="M26 46 L60 46 L60 102 Z" fill="#ffffff" fill-opacity="0.10"/>
  <g fill="none" stroke="#7a5210" stroke-width="1.4" stroke-linejoin="round" stroke-opacity="0.85">
    <path d="M26 46 L94 46"/>
    <path d="M60 26 L60 102"/>
    <path d="M42 26 L60 102"/>
    <path d="M78 26 L60 102"/>
    <path d="M26 46 L60 102"/>
    <path d="M94 46 L60 102"/>
    <path d="M42 26 L26 46"/>
    <path d="M78 26 L94 46"/>
    <path d="M42 26 L60 46"/>
    <path d="M78 26 L60 46"/>
  </g>
</svg>
